<?xml version="1.0" encoding="UTF-8"?>
<!DOCTYPE svg PUBLIC "-//W3C//DTD SVG 1.1//EN" "http://www.w3.org/Graphics/SVG/1.1/DTD/svg11.dtd">
<!-- Creator: CorelDRAW -->
<svg xmlns="http://www.w3.org/2000/svg" xml:space="preserve" width="591px" height="591px" version="1.1" style="shape-rendering:geometricPrecision; text-rendering:geometricPrecision; image-rendering:optimizeQuality; fill-rule:evenodd; clip-rule:evenodd"
viewBox="0 0 591 591"
 xmlns:xlink="http://www.w3.org/1999/xlink"
 xmlns:xodm="http://www.corel.com/coreldraw/odm/2003">
 <defs>
  <style type="text/css">
   <![CDATA[
    .fil1 {fill:#00B7D3}
    .fil0 {fill:white}
   ]]>
  </style>
 </defs>
 <g id="Camada_x0020_1">
  <metadata id="CorelCorpID_0Corel-Layer"/>
  <g id="_1326571528048">
   <path class="fil0" d="M47.4 123.03l0 15.38c0,59.72 58.6,157.02 99.64,203.98l23.66 27.59c4.55,4.5 8.78,8.22 12.5,13.12l31.68 31.09c3,2.89 4.13,3.16 7.06,5.75l27.32 23.93c49.63,38.75 66.03,50.61 125.25,78.44 41.91,19.69 103.75,34.67 143.62,0.99 40.83,-34.49 21.12,-107.81 2.85,-148.73 -4.27,-9.55 -6.08,-18.38 -17.5,-18.38 -6.89,0 -11.53,5.22 -11.53,12.82 0,6.2 48.3,96.85 9.97,135.51 -9.38,9.46 -25.18,13.09 -42,13.09 -65.6,0 -145.49,-53.32 -194.91,-93.34l-37.93 -33.81c-4.94,-4.94 -7.35,-7.06 -12.76,-11.58 -9.45,-7.9 -25.58,-27.98 -34.65,-37.09 -2.83,-2.85 -2.94,-3.42 -5.25,-6.28 -2.21,-2.74 -3.73,-3.74 -6.07,-6.74 -44.09,-56.47 -95.32,-125.96 -95.32,-203.17 0,-35.48 26.18,-51.25 57.64,-51.25 19.57,0 50.69,9.35 69.2,16.64 2.24,0.88 20.4,8.98 20.48,8.98 16.4,0 18.26,-18.6 7.68,-24.32 -2.01,-1.09 -4.17,-1.64 -6.37,-2.6 -2.15,-0.94 -3.49,-1.77 -5.99,-2.99 -37.99,-18.56 -108.81,-35.23 -144.27,-1.18 -13.99,13.43 -24,33.79 -24,54.15z"/>
   <path class="fil1" d="M117.86 226.8c0,14.4 12.55,16.2 19.78,10.81 4.6,-3.43 8.93,-14.87 12.76,-20.55 2.53,-3.77 4.05,-6.27 6.64,-10.01 24.69,-35.73 77.9,-66.08 120.96,-66.08 33.4,0 52.2,1.11 82.43,16.21 8.92,4.45 16.81,9.42 24.65,15.07 41.48,29.92 65.87,80.12 65.87,132.7 0,58.22 -36.15,113.8 -83.69,139.22 -8.59,4.59 -16.23,6.08 -16.23,17.07 0,6.89 5.22,11.54 12.81,11.54 9.67,0 35.71,-19.54 43.56,-25.62 62.29,-48.16 87.34,-141.77 53.77,-217.76 -8.65,-19.58 -13.64,-27.12 -25.77,-43.42 -2.26,-3.04 -2.8,-3.51 -5.23,-6.29 -12.43,-14.25 -8.05,-7.93 -17.35,-17.24 -25.31,-25.34 -76.96,-47.1 -114.32,-47.1 -35.92,0 -66.63,4.61 -96.94,20.91 -22.87,12.3 -40.65,26.91 -57.19,46.59 -2.95,3.5 -4.77,5.45 -7.49,9.16 -2.71,3.7 -4.64,6.84 -7.23,10.7 -2.94,4.38 -11.79,18.32 -11.79,24.09z"/>
   <path class="fil1" d="M107.62 347.23c0,25.22 30.94,70.08 47.07,86.15 14.75,14.69 38.22,32.39 58.14,40.51 10.7,4.37 36.99,16.87 36.99,-4.96 0,-17.31 -32.16,-8.6 -77.83,-54.12 -15.93,-15.88 -30.95,-39.01 -37.47,-61.18 -1.29,-4.39 -1.95,-8.39 -4.5,-12.15 -6.82,-10.07 -22.4,-5.61 -22.4,5.75z"/>
  </g>
 </g>
</svg>
