<?xml version="1.0" encoding="iso-8859-1"?>
<!-- Generator: Adobe Illustrator 16.0.0, SVG Export Plug-In . SVG Version: 6.00 Build 0)  -->
<!DOCTYPE svg PUBLIC "-//W3C//DTD SVG 1.1//EN" "http://www.w3.org/Graphics/SVG/1.1/DTD/svg11.dtd">
<svg version="1.1" xmlns="http://www.w3.org/2000/svg" xmlns:xlink="http://www.w3.org/1999/xlink" x="0px" y="0px" width="512px"
	 height="512px" viewBox="0 0 512 512" style="enable-background:new 0 0 512 512;" xml:space="preserve">
<g id="_x31_90_x2C__Astronomy_x2C__Planet_x2C__Space">
	<g>
		<path d="M339.057,166.869c-67.67,0-159.088,37.486-206.709,85.254c-25.31,25.387-34.744,50.401-26.566,70.436
			c8.354,20.467,33.352,31.739,70.387,31.739c67.671,0,159.088-37.486,206.709-85.254c25.31-25.387,34.744-50.402,26.566-70.436
			C401.09,178.141,376.093,166.869,339.057,166.869z M368.714,254.924c-44.021,44.155-130.365,79.374-192.545,79.374
			c-27.547,0-46.938-7.214-51.871-19.298c-4.873-11.938,3.224-29.709,22.213-48.757c44.022-44.158,130.363-79.375,192.545-79.375
			c27.548,0,46.938,7.214,51.87,19.297C395.8,218.104,387.704,235.875,368.714,254.924z"/>
		<path d="M365.265,357.645c-54.602,37.457-144.931,68.228-217.299,68.228c-5.523,0-10,4.478-10,10s4.477,10,10,10
			c76.241,0,170.57-31.919,228.614-71.735c4.554-3.124,5.713-9.349,2.589-13.903C376.043,355.68,369.82,354.521,365.265,357.645z"/>
		<path d="M122.676,166.657c3.125,4.556,9.35,5.713,13.903,2.589c54.603-37.458,144.932-68.229,217.302-68.229
			c23.685,0,46.1,3.184,66.621,9.464c5.28,1.616,10.873-1.356,12.488-6.636c1.616-5.281-1.355-10.873-6.637-12.489
			c-22.419-6.86-46.803-10.339-72.473-10.339c-76.242,0-170.58,31.923-228.615,71.736
			C120.711,155.878,119.552,162.103,122.676,166.657z"/>
		<path d="M458.851,162.78c-16.408-22.96-48.893-36.599-92.588-38.625c-91.357-4.238-211.034,43.1-276.886,109.957
			c-15.228-5.637-31.865,1.795-38.039,16.484c-4.211,10.021-2.687,21.295,3.82,29.807c-11.651,23.573-13.693,45.995-5.845,65.219
			c12.122,29.695,45.843,47.857,94.952,51.141c51.456,3.444,108.293-9.891,156.822-29.699
			c86.021-35.113,151.481-92.563,166.342-145.081c9.472-2.055,17.421-8.508,21.276-17.681
			C497.336,183.761,481.287,161.12,458.851,162.78z M75.216,252.961c3.426-1.398,7.193-0.762,9.962,1.413
			c6.063,4.766,4.639,14.229-2.404,17.104c-5.198,2.121-11.007-0.506-13.037-5.48C67.649,260.882,70.099,255.049,75.216,252.961z
			 M293.528,348.545c-47.069,19.214-94.226,28.632-133.415,28.629c-46.466-0.002-81.726-13.248-92.284-39.111
			c-6.487-15.892-2.083-33.088,4.236-46.66c14.254,3.39,28.888-4.001,34.587-17.562c3.682-8.761,3.045-18.634-1.85-26.886
			c28.971-29.014,70.116-55.214,116.921-74.32c93.177-38.033,187.298-37.922,218.36-1.436c-14.741,14.386-10.844,38.9,7.256,48.153
			C432.722,264.798,371.364,316.773,293.528,348.545z M464.827,201.935c-4.922,2.01-10.891-0.216-13.038-5.479
			c-2.083-5.101,0.322-11.111,5.791-13.134c5.032-1.869,10.671,0.543,12.726,5.578C472.396,194.016,469.944,199.846,464.827,201.935
			z"/>
		<path d="M243.715,228.46c-4.536-4.602-10.836-7.46-17.793-7.46c-15.522,0-27.368,14.076-24.597,29.443
			c-19.152,12.559-37.354,29.46-30.739,45.663c5.684,13.926,24.714,14.72,39.697,13.241c17.407-1.716,38.913-7.525,60.554-16.359
			c32.323-13.194,84.24-42.349,73.8-67.927C333.59,197.996,270.862,217.268,243.715,228.46z M225.922,241c2.771,0,5,2.263,5,5
			c0,2.757-2.243,5-5,5s-5-2.243-5-5S223.166,241,225.922,241z M263.279,274.471c-41.394,16.897-67.774,16.905-73.77,13.951
			c1.14-2.857,6.556-10.605,22.961-21.366c3.887,2.492,8.501,3.944,13.452,3.944c13.404,0,24.375-10.604,24.971-23.864
			c0.35-0.145,0.702-0.296,1.05-0.438c41.494-16.938,67.901-16.902,73.814-13.93C323.616,239.028,304.776,257.532,263.279,274.471z"
			/>
		<path d="M80.922,141c22.056,0,40-17.944,40-40s-17.944-40-40-40s-40,17.944-40,40S58.866,141,80.922,141z M80.922,81
			c11.028,0,20,8.972,20,20s-8.972,20-20,20s-20-8.972-20-20S69.895,81,80.922,81z"/>
		<path d="M435.922,361c-19.299,0-35,15.701-35,35s15.701,35,35,35s35-15.701,35-35S455.221,361,435.922,361z M435.922,411
			c-8.271,0-15-6.729-15-15s6.729-15,15-15s15,6.729,15,15S444.193,411,435.922,411z"/>
		<path d="M55.922,421c-13.785,0-25,11.215-25,25s11.215,25,25,25s25-11.215,25-25S69.708,421,55.922,421z M55.922,451
			c-2.757,0-5-2.243-5-5s2.243-5,5-5s5,2.243,5,5S58.679,451,55.922,451z"/>
		<circle cx="160.922" cy="61" r="10"/>
		<circle cx="450.922" cy="51" r="10"/>
		<circle cx="470.922" cy="311" r="10"/>
		<circle cx="360.922" cy="431" r="10"/>
		<circle cx="30.922" cy="391" r="10"/>
		<circle cx="50.922" cy="181" r="10"/>
		<circle cx="400.922" cy="341" r="10"/>
	</g>
</g>
<g id="Layer_1">
</g>
</svg>
